# SPINBOUND Orbital Explorer authored static mesh
s 1
o MechanismFixed
g MechanismFixed
v -1.300 -0.075 -0.120
v -1.160 -0.075 -0.160
v -0.460 -0.075 -0.150
v -0.340 -0.075 -0.180
v 0.340 -0.075 -0.180
v 0.460 -0.075 -0.150
v 1.160 -0.075 -0.160
v 1.300 -0.075 -0.120
v 1.300 -0.075 0.120
v 1.160 -0.075 0.160
v 0.460 -0.075 0.150
v 0.340 -0.075 0.180
v -0.340 -0.075 0.180
v -0.460 -0.075 0.150
v -1.160 -0.075 0.160
v -1.300 -0.075 0.120
v -1.300 0.025 -0.120
v -1.160 0.025 -0.160
v -0.460 0.025 -0.150
v -0.340 0.025 -0.180
v 0.340 0.025 -0.180
v 0.460 0.025 -0.150
v 1.160 0.025 -0.160
v 1.300 0.025 -0.120
v 1.300 0.025 0.120
v 1.160 0.025 0.160
v 0.460 0.025 0.150
v 0.340 0.025 0.180
v -0.340 0.025 0.180
v -0.460 0.025 0.150
v -1.160 0.025 0.160
v -1.300 0.025 0.120
f 1 2 18 17
f 2 3 19 18
f 3 4 20 19
f 4 5 21 20
f 5 6 22 21
f 6 7 23 22
f 7 8 24 23
f 8 9 25 24
f 9 10 26 25
f 10 11 27 26
f 11 12 28 27
f 12 13 29 28
f 13 14 30 29
f 14 15 31 30
f 15 16 32 31
f 16 1 17 32
f 16 15 14 13 12 11 10 9 8 7 6 5 4 3 2 1
f 17 18 19 20 21 22 23 24 25 26 27 28 29 30 31 32
o CeramicShell
g CeramicShell
v -1.300 -0.005 -0.091
v -1.160 -0.005 -0.122
v -0.460 -0.005 -0.114
v -0.340 -0.005 -0.137
v 0.340 -0.005 -0.137
v 0.460 -0.005 -0.114
v 1.160 -0.005 -0.122
v 1.300 -0.005 -0.091
v 1.300 -0.005 0.091
v 1.160 -0.005 0.122
v 0.460 -0.005 0.114
v 0.340 -0.005 0.137
v -0.340 -0.005 0.137
v -0.460 -0.005 0.114
v -1.160 -0.005 0.122
v -1.300 -0.005 0.091
v -1.300 0.095 -0.091
v -1.160 0.095 -0.122
v -0.460 0.095 -0.114
v -0.340 0.095 -0.137
v 0.340 0.095 -0.137
v 0.460 0.095 -0.114
v 1.160 0.095 -0.122
v 1.300 0.095 -0.091
v 1.300 0.095 0.091
v 1.160 0.095 0.122
v 0.460 0.095 0.114
v 0.340 0.095 0.137
v -0.340 0.095 0.137
v -0.460 0.095 0.114
v -1.160 0.095 0.122
v -1.300 0.095 0.091
f 33 34 50 49
f 34 35 51 50
f 35 36 52 51
f 36 37 53 52
f 37 38 54 53
f 38 39 55 54
f 39 40 56 55
f 40 41 57 56
f 41 42 58 57
f 42 43 59 58
f 43 44 60 59
f 44 45 61 60
f 45 46 62 61
f 46 47 63 62
f 47 48 64 63
f 48 33 49 64
f 48 47 46 45 44 43 42 41 40 39 38 37 36 35 34 33
f 49 50 51 52 53 54 55 56 57 58 59 60 61 62 63 64
o MetalSpine
g MetalSpine
v -1.115 0.095 -0.047
v 1.115 0.095 -0.047
v 1.140 0.095 -0.022
v 1.140 0.095 0.022
v 1.115 0.095 0.047
v -1.115 0.095 0.047
v -1.140 0.095 0.022
v -1.140 0.095 -0.022
v -1.115 0.121 -0.047
v 1.115 0.121 -0.047
v 1.140 0.121 -0.022
v 1.140 0.121 0.022
v 1.115 0.121 0.047
v -1.115 0.121 0.047
v -1.140 0.121 0.022
v -1.140 0.121 -0.022
f 65 66 74 73
f 66 67 75 74
f 67 68 76 75
f 68 69 77 76
f 69 70 78 77
f 70 71 79 78
f 71 72 80 79
f 72 65 73 80
f 72 71 70 69 68 67 66 65
f 73 74 75 76 77 78 79 80
o CenterMechanism
g CenterMechanism
v 0.390 -0.020 0.000
v 0.276 -0.020 0.276
v 0.000 -0.020 0.390
v -0.276 -0.020 0.276
v -0.390 -0.020 0.000
v -0.276 -0.020 -0.276
v -0.000 -0.020 -0.390
v 0.276 -0.020 -0.276
v 0.390 0.130 0.000
v 0.276 0.130 0.276
v 0.000 0.130 0.390
v -0.276 0.130 0.276
v -0.390 0.130 0.000
v -0.276 0.130 -0.276
v -0.000 0.130 -0.390
v 0.276 0.130 -0.276
f 81 82 90 89
f 82 83 91 90
f 83 84 92 91
f 84 85 93 92
f 85 86 94 93
f 86 87 95 94
f 87 88 96 95
f 88 81 89 96
f 88 87 86 85 84 83 82 81
f 89 90 91 92 93 94 95 96
o CenterEnergy
g CenterEnergy
v 0.190 0.090 0.000
v 0.134 0.090 0.134
v 0.000 0.090 0.190
v -0.134 0.090 0.134
v -0.190 0.090 0.000
v -0.134 0.090 -0.134
v -0.000 0.090 -0.190
v 0.134 0.090 -0.134
v 0.190 0.180 0.000
v 0.134 0.180 0.134
v 0.000 0.180 0.190
v -0.134 0.180 0.134
v -0.190 0.180 0.000
v -0.134 0.180 -0.134
v -0.000 0.180 -0.190
v 0.134 0.180 -0.134
f 97 98 106 105
f 98 99 107 106
f 99 100 108 107
f 100 101 109 108
f 101 102 110 109
f 102 103 111 110
f 103 104 112 111
f 104 97 105 112
f 104 103 102 101 100 99 98 97
f 105 106 107 108 109 110 111 112
o CoreCap
g CoreCap
v 0.090 0.145 0.000
v 0.064 0.145 0.064
v 0.000 0.145 0.090
v -0.064 0.145 0.064
v -0.090 0.145 0.000
v -0.064 0.145 -0.064
v -0.000 0.145 -0.090
v 0.064 0.145 -0.064
v 0.090 0.195 0.000
v 0.064 0.195 0.064
v 0.000 0.195 0.090
v -0.064 0.195 0.064
v -0.090 0.195 0.000
v -0.064 0.195 -0.064
v -0.000 0.195 -0.090
v 0.064 0.195 -0.064
f 113 114 122 121
f 114 115 123 122
f 115 116 124 123
f 116 117 125 124
f 117 118 126 125
f 118 119 127 126
f 119 120 128 127
f 120 113 121 128
f 120 119 118 117 116 115 114 113
f 121 122 123 124 125 126 127 128
o LeftPodMechanism
g LeftPodMechanism
v -1.200 -0.020 0.000
v -1.279 -0.020 0.166
v -1.470 -0.020 0.235
v -1.661 -0.020 0.166
v -1.740 -0.020 0.000
v -1.661 -0.020 -0.166
v -1.470 -0.020 -0.235
v -1.279 -0.020 -0.166
v -1.200 0.110 0.000
v -1.279 0.110 0.166
v -1.470 0.110 0.235
v -1.661 0.110 0.166
v -1.740 0.110 0.000
v -1.661 0.110 -0.166
v -1.470 0.110 -0.235
v -1.279 0.110 -0.166
f 129 130 138 137
f 130 131 139 138
f 131 132 140 139
f 132 133 141 140
f 133 134 142 141
f 134 135 143 142
f 135 136 144 143
f 136 129 137 144
f 136 135 134 133 132 131 130 129
f 137 138 139 140 141 142 143 144
o LeftPodCeramic
g LeftPodCeramic
v -1.275 0.080 0.000
v -1.332 0.080 0.120
v -1.470 0.080 0.170
v -1.608 0.080 0.120
v -1.665 0.080 0.000
v -1.608 0.080 -0.120
v -1.470 0.080 -0.170
v -1.332 0.080 -0.120
v -1.275 0.160 0.000
v -1.332 0.160 0.120
v -1.470 0.160 0.170
v -1.608 0.160 0.120
v -1.665 0.160 0.000
v -1.608 0.160 -0.120
v -1.470 0.160 -0.170
v -1.332 0.160 -0.120
f 145 146 154 153
f 146 147 155 154
f 147 148 156 155
f 148 149 157 156
f 149 150 158 157
f 150 151 159 158
f 151 152 160 159
f 152 145 153 160
f 152 151 150 149 148 147 146 145
f 153 154 155 156 157 158 159 160
o LeftPodEnergy
g LeftPodEnergy
v -1.370 0.131 0.000
v -1.399 0.131 0.064
v -1.470 0.131 0.090
v -1.541 0.131 0.064
v -1.570 0.131 0.000
v -1.541 0.131 -0.064
v -1.470 0.131 -0.090
v -1.399 0.131 -0.064
v -1.370 0.185 0.000
v -1.399 0.185 0.064
v -1.470 0.185 0.090
v -1.541 0.185 0.064
v -1.570 0.185 0.000
v -1.541 0.185 -0.064
v -1.470 0.185 -0.090
v -1.399 0.185 -0.064
f 161 162 170 169
f 162 163 171 170
f 163 164 172 171
f 164 165 173 172
f 165 166 174 173
f 166 167 175 174
f 167 168 176 175
f 168 161 169 176
f 168 167 166 165 164 163 162 161
f 169 170 171 172 173 174 175 176
o RightPodMechanism
g RightPodMechanism
v 1.740 -0.020 0.000
v 1.661 -0.020 0.166
v 1.470 -0.020 0.235
v 1.279 -0.020 0.166
v 1.200 -0.020 0.000
v 1.279 -0.020 -0.166
v 1.470 -0.020 -0.235
v 1.661 -0.020 -0.166
v 1.740 0.110 0.000
v 1.661 0.110 0.166
v 1.470 0.110 0.235
v 1.279 0.110 0.166
v 1.200 0.110 0.000
v 1.279 0.110 -0.166
v 1.470 0.110 -0.235
v 1.661 0.110 -0.166
f 177 178 186 185
f 178 179 187 186
f 179 180 188 187
f 180 181 189 188
f 181 182 190 189
f 182 183 191 190
f 183 184 192 191
f 184 177 185 192
f 184 183 182 181 180 179 178 177
f 185 186 187 188 189 190 191 192
o RightPodCeramic
g RightPodCeramic
v 1.665 0.080 0.000
v 1.608 0.080 0.120
v 1.470 0.080 0.170
v 1.332 0.080 0.120
v 1.275 0.080 0.000
v 1.332 0.080 -0.120
v 1.470 0.080 -0.170
v 1.608 0.080 -0.120
v 1.665 0.160 0.000
v 1.608 0.160 0.120
v 1.470 0.160 0.170
v 1.332 0.160 0.120
v 1.275 0.160 0.000
v 1.332 0.160 -0.120
v 1.470 0.160 -0.170
v 1.608 0.160 -0.120
f 193 194 202 201
f 194 195 203 202
f 195 196 204 203
f 196 197 205 204
f 197 198 206 205
f 198 199 207 206
f 199 200 208 207
f 200 193 201 208
f 200 199 198 197 196 195 194 193
f 201 202 203 204 205 206 207 208
o RightPodEnergy
g RightPodEnergy
v 1.570 0.131 0.000
v 1.541 0.131 0.064
v 1.470 0.131 0.090
v 1.399 0.131 0.064
v 1.370 0.131 0.000
v 1.399 0.131 -0.064
v 1.470 0.131 -0.090
v 1.541 0.131 -0.064
v 1.570 0.185 0.000
v 1.541 0.185 0.064
v 1.470 0.185 0.090
v 1.399 0.185 0.064
v 1.370 0.185 0.000
v 1.399 0.185 -0.064
v 1.470 0.185 -0.090
v 1.541 0.185 -0.064
f 209 210 218 217
f 210 211 219 218
f 211 212 220 219
f 212 213 221 220
f 213 214 222 221
f 214 215 223 222
f 215 216 224 223
f 216 209 217 224
f 216 215 214 213 212 211 210 209
f 217 218 219 220 221 222 223 224
