# SPINBOUND Orbital Explorer authored static mesh
s 1
o MechanismFixed
v -1.300 -0.075 -0.120
v -1.160 -0.075 -0.160
v -0.460 -0.075 -0.150
v -0.340 -0.075 -0.180
v 0.340 -0.075 -0.180
v 0.460 -0.075 -0.150
v 1.160 -0.075 -0.160
v 1.300 -0.075 -0.120
v 1.300 -0.075 0.120
v 1.160 -0.075 0.160
v 0.460 -0.075 0.150
v 0.340 -0.075 0.180
v -0.340 -0.075 0.180
v -0.460 -0.075 0.150
v -1.160 -0.075 0.160
v -1.300 -0.075 0.120
v -1.300 0.025 -0.120
v -1.160 0.025 -0.160
v -0.460 0.025 -0.150
v -0.340 0.025 -0.180
v 0.340 0.025 -0.180
v 0.460 0.025 -0.150
v 1.160 0.025 -0.160
v 1.300 0.025 -0.120
v 1.300 0.025 0.120
v 1.160 0.025 0.160
v 0.460 0.025 0.150
v 0.340 0.025 0.180
v -0.340 0.025 0.180
v -0.460 0.025 0.150
v -1.160 0.025 0.160
v -1.300 0.025 0.120
f 1 2 18 17
f 2 3 19 18
f 3 4 20 19
f 4 5 21 20
f 5 6 22 21
f 6 7 23 22
f 7 8 24 23
f 8 9 25 24
f 9 10 26 25
f 10 11 27 26
f 11 12 28 27
f 12 13 29 28
f 13 14 30 29
f 14 15 31 30
f 15 16 32 31
f 16 1 17 32
f 16 15 14 13 12 11 10 9 8 7 6 5 4 3 2 1
f 17 18 19 20 21 22 23 24 25 26 27 28 29 30 31 32
o CeramicShell
v -1.300 -0.005 -0.091
v -1.160 -0.005 -0.122
v -0.460 -0.005 -0.114
v -0.340 -0.005 -0.137
v 0.340 -0.005 -0.137
v 0.460 -0.005 -0.114
v 1.160 -0.005 -0.122
v 1.300 -0.005 -0.091
v 1.300 -0.005 0.091
v 1.160 -0.005 0.122
v 0.460 -0.005 0.114
v 0.340 -0.005 0.137
v -0.340 -0.005 0.137
v -0.460 -0.005 0.114
v -1.160 -0.005 0.122
v -1.300 -0.005 0.091
v -1.300 0.095 -0.091
v -1.160 0.095 -0.122
v -0.460 0.095 -0.114
v -0.340 0.095 -0.137
v 0.340 0.095 -0.137
v 0.460 0.095 -0.114
v 1.160 0.095 -0.122
v 1.300 0.095 -0.091
v 1.300 0.095 0.091
v 1.160 0.095 0.122
v 0.460 0.095 0.114
v 0.340 0.095 0.137
v -0.340 0.095 0.137
v -0.460 0.095 0.114
v -1.160 0.095 0.122
v -1.300 0.095 0.091
f 33 34 50 49
f 34 35 51 50
f 35 36 52 51
f 36 37 53 52
f 37 38 54 53
f 38 39 55 54
f 39 40 56 55
f 40 41 57 56
f 41 42 58 57
f 42 43 59 58
f 43 44 60 59
f 44 45 61 60
f 45 46 62 61
f 46 47 63 62
f 47 48 64 63
f 48 33 49 64
f 48 47 46 45 44 43 42 41 40 39 38 37 36 35 34 33
f 49 50 51 52 53 54 55 56 57 58 59 60 61 62 63 64
o MetalSpine
v -1.115 0.095 -0.047
v 1.115 0.095 -0.047
v 1.140 0.095 -0.022
v 1.140 0.095 0.022
v 1.115 0.095 0.047
v -1.115 0.095 0.047
v -1.140 0.095 0.022
v -1.140 0.095 -0.022
v -1.115 0.121 -0.047
v 1.115 0.121 -0.047
v 1.140 0.121 -0.022
v 1.140 0.121 0.022
v 1.115 0.121 0.047
v -1.115 0.121 0.047
v -1.140 0.121 0.022
v -1.140 0.121 -0.022
f 65 66 74 73
f 66 67 75 74
f 67 68 76 75
f 68 69 77 76
f 69 70 78 77
f 70 71 79 78
f 71 72 80 79
f 72 65 73 80
f 72 71 70 69 68 67 66 65
f 73 74 75 76 77 78 79 80
o EnergyRailA
v -1.024 0.117 -0.118
v 1.024 0.117 -0.118
v 1.030 0.117 -0.112
v 1.030 0.117 -0.098
v 1.024 0.117 -0.092
v -1.024 0.117 -0.092
v -1.030 0.117 -0.098
v -1.030 0.117 -0.112
v -1.024 0.131 -0.118
v 1.024 0.131 -0.118
v 1.030 0.131 -0.112
v 1.030 0.131 -0.098
v 1.024 0.131 -0.092
v -1.024 0.131 -0.092
v -1.030 0.131 -0.098
v -1.030 0.131 -0.112
f 81 82 90 89
f 82 83 91 90
f 83 84 92 91
f 84 85 93 92
f 85 86 94 93
f 86 87 95 94
f 87 88 96 95
f 88 81 89 96
f 88 87 86 85 84 83 82 81
f 89 90 91 92 93 94 95 96
o EnergyRailB
v -1.024 0.117 0.092
v 1.024 0.117 0.092
v 1.030 0.117 0.098
v 1.030 0.117 0.112
v 1.024 0.117 0.118
v -1.024 0.117 0.118
v -1.030 0.117 0.112
v -1.030 0.117 0.098
v -1.024 0.131 0.092
v 1.024 0.131 0.092
v 1.030 0.131 0.098
v 1.030 0.131 0.112
v 1.024 0.131 0.118
v -1.024 0.131 0.118
v -1.030 0.131 0.112
v -1.030 0.131 0.098
f 97 98 106 105
f 98 99 107 106
f 99 100 108 107
f 100 101 109 108
f 101 102 110 109
f 102 103 111 110
f 103 104 112 111
f 104 97 105 112
f 104 103 102 101 100 99 98 97
f 105 106 107 108 109 110 111 112
o CenterMechanism
v 0.390 -0.020 0.000
v 0.316 -0.020 0.229
v 0.121 -0.020 0.371
v -0.121 -0.020 0.371
v -0.316 -0.020 0.229
v -0.390 -0.020 0.000
v -0.316 -0.020 -0.229
v -0.121 -0.020 -0.371
v 0.121 -0.020 -0.371
v 0.316 -0.020 -0.229
v 0.390 0.130 0.000
v 0.316 0.130 0.229
v 0.121 0.130 0.371
v -0.121 0.130 0.371
v -0.316 0.130 0.229
v -0.390 0.130 0.000
v -0.316 0.130 -0.229
v -0.121 0.130 -0.371
v 0.121 0.130 -0.371
v 0.316 0.130 -0.229
f 113 114 124 123
f 114 115 125 124
f 115 116 126 125
f 116 117 127 126
f 117 118 128 127
f 118 119 129 128
f 119 120 130 129
f 120 121 131 130
f 121 122 132 131
f 122 113 123 132
f 122 121 120 119 118 117 116 115 114 113
f 123 124 125 126 127 128 129 130 131 132
o CenterMetalRing
v 0.310 0.035 0.000
v 0.251 0.035 0.182
v 0.096 0.035 0.295
v -0.096 0.035 0.295
v -0.251 0.035 0.182
v -0.310 0.035 0.000
v -0.251 0.035 -0.182
v -0.096 0.035 -0.295
v 0.096 0.035 -0.295
v 0.251 0.035 -0.182
v 0.310 0.155 0.000
v 0.251 0.155 0.182
v 0.096 0.155 0.295
v -0.096 0.155 0.295
v -0.251 0.155 0.182
v -0.310 0.155 0.000
v -0.251 0.155 -0.182
v -0.096 0.155 -0.295
v 0.096 0.155 -0.295
v 0.251 0.155 -0.182
f 133 134 144 143
f 134 135 145 144
f 135 136 146 145
f 136 137 147 146
f 137 138 148 147
f 138 139 149 148
f 139 140 150 149
f 140 141 151 150
f 141 142 152 151
f 142 133 143 152
f 142 141 140 139 138 137 136 135 134 133
f 143 144 145 146 147 148 149 150 151 152
o CenterEnergy
v 0.230 0.090 0.000
v 0.186 0.090 0.135
v 0.071 0.090 0.219
v -0.071 0.090 0.219
v -0.186 0.090 0.135
v -0.230 0.090 0.000
v -0.186 0.090 -0.135
v -0.071 0.090 -0.219
v 0.071 0.090 -0.219
v 0.186 0.090 -0.135
v 0.230 0.180 0.000
v 0.186 0.180 0.135
v 0.071 0.180 0.219
v -0.071 0.180 0.219
v -0.186 0.180 0.135
v -0.230 0.180 0.000
v -0.186 0.180 -0.135
v -0.071 0.180 -0.219
v 0.071 0.180 -0.219
v 0.186 0.180 -0.135
f 153 154 164 163
f 154 155 165 164
f 155 156 166 165
f 156 157 167 166
f 157 158 168 167
f 158 159 169 168
f 159 160 170 169
f 160 161 171 170
f 161 162 172 171
f 162 153 163 172
f 162 161 160 159 158 157 156 155 154 153
f 163 164 165 166 167 168 169 170 171 172
o CoreCap
v 0.090 0.145 0.000
v 0.064 0.145 0.064
v 0.000 0.145 0.090
v -0.064 0.145 0.064
v -0.090 0.145 0.000
v -0.064 0.145 -0.064
v -0.000 0.145 -0.090
v 0.064 0.145 -0.064
v 0.090 0.195 0.000
v 0.064 0.195 0.064
v 0.000 0.195 0.090
v -0.064 0.195 0.064
v -0.090 0.195 0.000
v -0.064 0.195 -0.064
v -0.000 0.195 -0.090
v 0.064 0.195 -0.064
f 173 174 182 181
f 174 175 183 182
f 175 176 184 183
f 176 177 185 184
f 177 178 186 185
f 178 179 187 186
f 179 180 188 187
f 180 173 181 188
f 180 179 178 177 176 175 174 173
f 181 182 183 184 185 186 187 188
o CounterRotationCore
v 0.215 0.192 0.000
v 0.074 0.192 0.042
v 0.108 0.192 0.186
v 0.000 0.192 0.085
v -0.107 0.192 0.186
v -0.074 0.192 0.042
v -0.215 0.192 0.000
v -0.074 0.192 -0.042
v -0.108 0.192 -0.186
v -0.000 0.192 -0.085
v 0.108 0.192 -0.186
v 0.074 0.192 -0.043
v 0.215 0.217 0.000
v 0.074 0.217 0.042
v 0.108 0.217 0.186
v 0.000 0.217 0.085
v -0.107 0.217 0.186
v -0.074 0.217 0.042
v -0.215 0.217 0.000
v -0.074 0.217 -0.042
v -0.108 0.217 -0.186
v -0.000 0.217 -0.085
v 0.108 0.217 -0.186
v 0.074 0.217 -0.043
f 189 190 202 201
f 190 191 203 202
f 191 192 204 203
f 192 193 205 204
f 193 194 206 205
f 194 195 207 206
f 195 196 208 207
f 196 197 209 208
f 197 198 210 209
f 198 199 211 210
f 199 200 212 211
f 200 189 201 212
f 200 199 198 197 196 195 194 193 192 191 190 189
f 201 202 203 204 205 206 207 208 209 210 211 212
o CeramicYokeLeft
v -0.495 0.077 -0.130
v -0.385 0.077 -0.130
v -0.360 0.077 -0.105
v -0.360 0.077 0.105
v -0.385 0.077 0.130
v -0.495 0.077 0.130
v -0.520 0.077 0.105
v -0.520 0.077 -0.105
v -0.495 0.133 -0.130
v -0.385 0.133 -0.130
v -0.360 0.133 -0.105
v -0.360 0.133 0.105
v -0.385 0.133 0.130
v -0.495 0.133 0.130
v -0.520 0.133 0.105
v -0.520 0.133 -0.105
f 213 214 222 221
f 214 215 223 222
f 215 216 224 223
f 216 217 225 224
f 217 218 226 225
f 218 219 227 226
f 219 220 228 227
f 220 213 221 228
f 220 219 218 217 216 215 214 213
f 221 222 223 224 225 226 227 228
o CeramicYokeRight
v 0.385 0.077 -0.130
v 0.495 0.077 -0.130
v 0.520 0.077 -0.105
v 0.520 0.077 0.105
v 0.495 0.077 0.130
v 0.385 0.077 0.130
v 0.360 0.077 0.105
v 0.360 0.077 -0.105
v 0.385 0.133 -0.130
v 0.495 0.133 -0.130
v 0.520 0.133 -0.105
v 0.520 0.133 0.105
v 0.495 0.133 0.130
v 0.385 0.133 0.130
v 0.360 0.133 0.105
v 0.360 0.133 -0.105
f 229 230 238 237
f 230 231 239 238
f 231 232 240 239
f 232 233 241 240
f 233 234 242 241
f 234 235 243 242
f 235 236 244 243
f 236 229 237 244
f 236 235 234 233 232 231 230 229
f 237 238 239 240 241 242 243 244
o LeftPodMechanism
v -1.200 -0.020 0.000
v -1.252 -0.020 0.138
v -1.387 -0.020 0.223
v -1.553 -0.020 0.223
v -1.688 -0.020 0.138
v -1.740 -0.020 0.000
v -1.688 -0.020 -0.138
v -1.553 -0.020 -0.223
v -1.387 -0.020 -0.223
v -1.252 -0.020 -0.138
v -1.200 0.110 0.000
v -1.252 0.110 0.138
v -1.387 0.110 0.223
v -1.553 0.110 0.223
v -1.688 0.110 0.138
v -1.740 0.110 0.000
v -1.688 0.110 -0.138
v -1.553 0.110 -0.223
v -1.387 0.110 -0.223
v -1.252 0.110 -0.138
f 245 246 256 255
f 246 247 257 256
f 247 248 258 257
f 248 249 259 258
f 249 250 260 259
f 250 251 261 260
f 251 252 262 261
f 252 253 263 262
f 253 254 264 263
f 254 245 255 264
f 254 253 252 251 250 249 248 247 246 245
f 255 256 257 258 259 260 261 262 263 264
o LeftPodMetal
v -1.245 0.033 0.000
v -1.311 0.033 0.138
v -1.470 0.033 0.195
v -1.629 0.033 0.138
v -1.695 0.033 0.000
v -1.629 0.033 -0.138
v -1.470 0.033 -0.195
v -1.311 0.033 -0.138
v -1.245 0.138 0.000
v -1.311 0.138 0.138
v -1.470 0.138 0.195
v -1.629 0.138 0.138
v -1.695 0.138 0.000
v -1.629 0.138 -0.138
v -1.470 0.138 -0.195
v -1.311 0.138 -0.138
f 265 266 274 273
f 266 267 275 274
f 267 268 276 275
f 268 269 277 276
f 269 270 278 277
f 270 271 279 278
f 271 272 280 279
f 272 265 273 280
f 272 271 270 269 268 267 266 265
f 273 274 275 276 277 278 279 280
o LeftPodCeramic
v -1.275 0.080 0.000
v -1.332 0.080 0.120
v -1.470 0.080 0.170
v -1.608 0.080 0.120
v -1.665 0.080 0.000
v -1.608 0.080 -0.120
v -1.470 0.080 -0.170
v -1.332 0.080 -0.120
v -1.275 0.160 0.000
v -1.332 0.160 0.120
v -1.470 0.160 0.170
v -1.608 0.160 0.120
v -1.665 0.160 0.000
v -1.608 0.160 -0.120
v -1.470 0.160 -0.170
v -1.332 0.160 -0.120
f 281 282 290 289
f 282 283 291 290
f 283 284 292 291
f 284 285 293 292
f 285 286 294 293
f 286 287 295 294
f 287 288 296 295
f 288 281 289 296
f 288 287 286 285 284 283 282 281
f 289 290 291 292 293 294 295 296
o LeftPodEnergy
v -1.370 0.131 0.000
v -1.399 0.131 0.064
v -1.470 0.131 0.090
v -1.541 0.131 0.064
v -1.570 0.131 0.000
v -1.541 0.131 -0.064
v -1.470 0.131 -0.090
v -1.399 0.131 -0.064
v -1.370 0.185 0.000
v -1.399 0.185 0.064
v -1.470 0.185 0.090
v -1.541 0.185 0.064
v -1.570 0.185 0.000
v -1.541 0.185 -0.064
v -1.470 0.185 -0.090
v -1.399 0.185 -0.064
f 297 298 306 305
f 298 299 307 306
f 299 300 308 307
f 300 301 309 308
f 301 302 310 309
f 302 303 311 310
f 303 304 312 311
f 304 297 305 312
f 304 303 302 301 300 299 298 297
f 305 306 307 308 309 310 311 312
o LeftPodFin
v -1.770 0.052 -0.065
v -1.610 0.052 -0.065
v -1.585 0.052 -0.040
v -1.585 0.052 0.040
v -1.610 0.052 0.065
v -1.770 0.052 0.065
v -1.795 0.052 0.040
v -1.795 0.052 -0.040
v -1.770 0.098 -0.065
v -1.610 0.098 -0.065
v -1.585 0.098 -0.040
v -1.585 0.098 0.040
v -1.610 0.098 0.065
v -1.770 0.098 0.065
v -1.795 0.098 0.040
v -1.795 0.098 -0.040
f 313 314 322 321
f 314 315 323 322
f 315 316 324 323
f 316 317 325 324
f 317 318 326 325
f 318 319 327 326
f 319 320 328 327
f 320 313 321 328
f 320 319 318 317 316 315 314 313
f 321 322 323 324 325 326 327 328
o RightPodMechanism
v 1.740 -0.020 0.000
v 1.688 -0.020 0.138
v 1.553 -0.020 0.223
v 1.387 -0.020 0.223
v 1.252 -0.020 0.138
v 1.200 -0.020 0.000
v 1.252 -0.020 -0.138
v 1.387 -0.020 -0.223
v 1.553 -0.020 -0.223
v 1.688 -0.020 -0.138
v 1.740 0.110 0.000
v 1.688 0.110 0.138
v 1.553 0.110 0.223
v 1.387 0.110 0.223
v 1.252 0.110 0.138
v 1.200 0.110 0.000
v 1.252 0.110 -0.138
v 1.387 0.110 -0.223
v 1.553 0.110 -0.223
v 1.688 0.110 -0.138
f 329 330 340 339
f 330 331 341 340
f 331 332 342 341
f 332 333 343 342
f 333 334 344 343
f 334 335 345 344
f 335 336 346 345
f 336 337 347 346
f 337 338 348 347
f 338 329 339 348
f 338 337 336 335 334 333 332 331 330 329
f 339 340 341 342 343 344 345 346 347 348
o RightPodMetal
v 1.695 0.033 0.000
v 1.629 0.033 0.138
v 1.470 0.033 0.195
v 1.311 0.033 0.138
v 1.245 0.033 0.000
v 1.311 0.033 -0.138
v 1.470 0.033 -0.195
v 1.629 0.033 -0.138
v 1.695 0.138 0.000
v 1.629 0.138 0.138
v 1.470 0.138 0.195
v 1.311 0.138 0.138
v 1.245 0.138 0.000
v 1.311 0.138 -0.138
v 1.470 0.138 -0.195
v 1.629 0.138 -0.138
f 349 350 358 357
f 350 351 359 358
f 351 352 360 359
f 352 353 361 360
f 353 354 362 361
f 354 355 363 362
f 355 356 364 363
f 356 349 357 364
f 356 355 354 353 352 351 350 349
f 357 358 359 360 361 362 363 364
o RightPodCeramic
v 1.665 0.080 0.000
v 1.608 0.080 0.120
v 1.470 0.080 0.170
v 1.332 0.080 0.120
v 1.275 0.080 0.000
v 1.332 0.080 -0.120
v 1.470 0.080 -0.170
v 1.608 0.080 -0.120
v 1.665 0.160 0.000
v 1.608 0.160 0.120
v 1.470 0.160 0.170
v 1.332 0.160 0.120
v 1.275 0.160 0.000
v 1.332 0.160 -0.120
v 1.470 0.160 -0.170
v 1.608 0.160 -0.120
f 365 366 374 373
f 366 367 375 374
f 367 368 376 375
f 368 369 377 376
f 369 370 378 377
f 370 371 379 378
f 371 372 380 379
f 372 365 373 380
f 372 371 370 369 368 367 366 365
f 373 374 375 376 377 378 379 380
o RightPodEnergy
v 1.570 0.131 0.000
v 1.541 0.131 0.064
v 1.470 0.131 0.090
v 1.399 0.131 0.064
v 1.370 0.131 0.000
v 1.399 0.131 -0.064
v 1.470 0.131 -0.090
v 1.541 0.131 -0.064
v 1.570 0.185 0.000
v 1.541 0.185 0.064
v 1.470 0.185 0.090
v 1.399 0.185 0.064
v 1.370 0.185 0.000
v 1.399 0.185 -0.064
v 1.470 0.185 -0.090
v 1.541 0.185 -0.064
f 381 382 390 389
f 382 383 391 390
f 383 384 392 391
f 384 385 393 392
f 385 386 394 393
f 386 387 395 394
f 387 388 396 395
f 388 381 389 396
f 388 387 386 385 384 383 382 381
f 389 390 391 392 393 394 395 396
o RightPodFin
v 1.610 0.052 -0.065
v 1.770 0.052 -0.065
v 1.795 0.052 -0.040
v 1.795 0.052 0.040
v 1.770 0.052 0.065
v 1.610 0.052 0.065
v 1.585 0.052 0.040
v 1.585 0.052 -0.040
v 1.610 0.098 -0.065
v 1.770 0.098 -0.065
v 1.795 0.098 -0.040
v 1.795 0.098 0.040
v 1.770 0.098 0.065
v 1.610 0.098 0.065
v 1.585 0.098 0.040
v 1.585 0.098 -0.040
f 397 398 406 405
f 398 399 407 406
f 399 400 408 407
f 400 401 409 408
f 401 402 410 409
f 402 403 411 410
f 403 404 412 411
f 404 397 405 412
f 404 403 402 401 400 399 398 397
f 405 406 407 408 409 410 411 412
